<?xml version="1.0" encoding="utf-8"?>
<!-- Generator: Adobe Illustrator 16.0.4, SVG Export Plug-In . SVG Version: 6.00 Build 0)  -->
<!DOCTYPE svg PUBLIC "-//W3C//DTD SVG 1.1//EN" "http://www.w3.org/Graphics/SVG/1.1/DTD/svg11.dtd">
<svg version="1.1" id="NEW_ZEALAND" xmlns="http://www.w3.org/2000/svg" xmlns:xlink="http://www.w3.org/1999/xlink" x="0px"
	 y="0px" width="144.504px" height="221.264px" viewBox="0 0 144.504 221.264" enable-background="new 0 0 144.504 221.264"
	 xml:space="preserve">
<g>
	<polygon fill="#9FDD9C" points="78.336,0.36 78.624,0 78.695,0.216 79.632,0.288 79.416,1.008 79.632,2.808 80.279,4.536 
		80.784,5.4 80.712,6.264 80.928,6.84 82.08,8.352 83.16,7.776 84.312,6.264 84.6,6.984 84.384,8.136 85.824,8.064 87.048,7.848 
		88.271,8.856 89.784,8.928 91.008,8.928 92.52,10.08 93.168,10.728 92.881,11.016 91.439,11.736 94.104,13.32 94.393,12.384 
		95.545,13.248 95.615,14.472 96.191,15.984 97.129,16.92 98.137,17.856 98.352,18.576 98.496,20.016 98.928,21.816 98.352,21.384 
		96.48,20.376 95.256,20.592 95.615,22.176 95.977,22.464 96.553,22.248 97.271,23.04 97.848,24.768 99.287,26.352 100.656,28.872 
		101.809,30.312 102.023,30.888 100.656,32.472 100.225,34.128 100.367,34.704 101.16,35.064 100.871,36.648 100.152,36.865 
		99.432,37.8 99.793,38.304 100.439,38.304 101.305,38.808 101.592,39.096 103.104,39.24 103.824,38.736 105.191,38.448 
		106.129,38.736 106.271,40.824 106.703,42.624 108.145,43.128 109.152,41.688 109.297,38.664 109.297,35.712 109.225,34.416 
		108.072,32.328 109.008,31.968 109.512,33.48 111.168,33.912 112.607,34.272 112.607,36.648 112.969,37.08 113.039,39.024 
		113.328,40.392 113.328,41.472 113.039,42.408 113.184,44.064 113.977,45.073 114.48,46.368 114.695,48.816 116.279,50.184 
		118.152,50.112 120.455,51.84 123.191,52.776 126.217,53.568 127.801,54.504 129.023,54.865 130.031,54.72 131.184,53.281 
		132.119,53.352 133.199,51.696 134.064,50.544 135.145,49.896 136.225,48.888 137.951,47.808 138.744,47.088 140.111,46.584 
		141.84,46.8 143.279,47.808 144.504,48.816 144.504,49.896 143.928,51.984 143.424,53.496 142.561,55.296 142.271,59.04 
		141.912,59.76 141.84,61.344 141.119,63.504 139.104,65.088 137.232,65.736 136.943,67.176 136.512,68.976 135.936,69.84 
		136.008,71.712 136.584,72.144 136.512,73.008 135.217,74.808 135,71.856 134.064,71.568 132.623,71.712 130.824,72.144 
		129.168,72.288 127.871,72.792 126.648,74.088 124.848,76.176 123.84,77.4 122.545,79.2 122.688,80.208 123.191,79.776 
		123.695,81.72 124.633,82.44 124.129,84.6 122.904,87.12 121.68,89.064 120.672,90.936 119.447,92.88 119.016,94.536 
		117.432,96.12 116.064,98.136 113.904,101.664 110.809,106.416 108.072,110.16 104.184,112.896 102.455,113.976 101.088,112.536 
		100.297,110.88 95.904,111.24 95.328,109.512 95.545,107.281 95.545,108.36 96.623,106.704 97.199,106.056 98.496,103.68 
		100.008,102.096 101.377,99.216 101.951,96.264 102.672,94.104 103.031,92.232 102.24,90.648 101.016,88.92 99.432,86.976 
		96.84,86.832 94.465,85.608 91.008,81.936 88.561,81.72 86.616,79.272 87.048,76.32 89.208,74.088 91.439,72.648 94.465,71.496 
		96.408,69.336 97.344,66.024 97.633,63.36 97.992,60.84 98.928,58.176 100.297,58.32 100.801,57.528 100.871,55.368 
		100.584,53.352 101.881,52.2 101.377,51.336 100.801,48.168 101.377,45.576 100.439,45.936 98.713,43.992 98.352,42.48 
		99.721,42.12 100.439,41.256 100.729,40.32 100.656,39.456 99.504,39.24 97.271,40.104 96.191,37.728 95.039,35.136 94.104,32.04 
		94.68,33.552 95.256,34.632 96.191,33.624 96.623,30.744 95.615,30.888 94.752,30.312 95.328,29.52 95.256,28.224 95.473,26.928 
		94.607,26.352 93.961,27.432 92.52,27.073 92.232,28.512 92.448,29.664 92.448,30.312 89.784,25.344 85.752,20.232 84.744,18 
		84.672,17.208 85.68,15.768 86.473,13.968 85.824,13.392 85.393,14.544 83.88,16.2 82.152,14.256 81.288,12.024 81.359,10.944 
		81.576,10.44 81,8.281 77.977,3.456 76.824,1.944 76.176,0.936 77.328,0.504 	"/>
	<polygon fill="#9FDD9C" points="65.664,107.568 66.24,107.568 66.312,106.488 66.456,104.472 67.248,103.752 68.328,103.176 
		69.984,100.872 70.992,100.728 71.352,99.936 72.216,99.432 72.72,100.08 72.504,102.528 73.225,103.896 74.376,104.184 
		75.6,103.896 76.536,105.264 76.176,109.008 76.752,110.52 78.048,111.312 78.984,110.376 80.208,109.512 80.424,109.008 
		81.072,108.504 82.152,107.928 83.088,106.92 83.305,106.416 84.672,105.552 85.393,105.048 86.328,104.688 86.616,105.048 
		85.393,106.344 85.752,106.632 85.896,108.288 85.032,110.52 85.824,109.8 87.264,109.08 87.191,108.865 86.832,107.928 
		86.977,107.64 87.552,106.416 87.84,106.056 88.344,105.696 88.992,105.624 89.352,106.128 89.641,106.92 89.784,107.281 
		89.279,108.288 88.561,109.224 87.984,109.872 88.632,109.872 89.137,111.312 88.488,112.464 88.057,113.616 88.561,114.984 
		89.352,117.648 88.775,119.16 87.624,120.6 86.544,122.328 86.04,123.768 84.672,125.928 83.305,126.216 83.016,127.224 
		82.152,128.376 80.641,129.96 79.632,132.48 77.76,136.152 77.256,136.512 76.536,137.448 75.672,137.952 75.6,137.808 
		75.24,138.096 74.736,138.959 73.729,139.751 72.936,140.472 72.72,140.543 72.72,140.543 72.36,140.688 72.072,140.976 
		72.072,140.976 71.712,141.768 71.424,141.624 71.28,142.992 70.92,144.36 70.632,145.944 70.632,147.024 70.128,148.463 
		69.984,149.4 70.488,149.616 71.928,149.976 73.296,150.768 73.729,152.496 73.368,153.288 72.432,151.919 72.144,153.503 
		70.128,152.711 67.968,152.064 66.6,151.272 65.952,151.704 65.88,153.216 65.16,154.152 64.44,153.36 63.72,153.144 
		63.36,154.583 61.632,155.592 60.12,156.167 59.328,156.888 58.176,157.751 57.24,157.608 56.88,156.528 56.304,156.24 
		55.944,156.384 55.872,157.32 55.8,158.4 55.08,160.992 53.496,163.656 52.92,166.248 52.488,170.208 51.264,171.073 
		51.192,172.008 51.336,173.592 50.328,174.816 49.248,176.112 49.032,177.192 48.6,178.848 48.384,180.648 47.592,182.016 
		47.088,182.879 45.864,184.176 45.36,185.184 45.288,185.616 45.504,186.192 45.36,186.912 44.568,187.631 45.504,187.919 
		44.928,189.144 43.416,189.288 41.76,190.512 40.608,192.024 39.456,193.463 37.872,194.472 36.36,195.047 35.712,195.48 
		35.568,196.416 34.488,196.776 34.128,197.568 33.912,198.288 33.048,198.792 32.04,199.368 29.088,200.664 28.44,200.664 
		27.504,201.024 26.208,201.528 25.128,201.024 24.768,199.44 24.12,199.295 22.896,200.16 21.6,200.592 20.88,200.448 
		20.952,200.016 19.728,200.664 19.512,199.512 19.44,198.216 19.152,198.576 18.72,198.503 17.496,198.073 16.416,198.073 
		13.68,198.216 13.248,195.768 12.312,194.904 10.512,194.688 9.72,195.408 8.928,196.272 7.2,196.704 5.4,196.488 3.312,196.631 
		2.16,195.768 2.736,194.328 3.888,192.816 4.464,191.52 3.744,192.456 2.16,194.04 1.656,194.255 1.944,192.888 2.448,191.879 
		2.304,191.448 1.8,192.312 0.288,192.888 0,191.448 0.432,190.44 1.512,189.865 3.096,189.503 4.536,188.136 4.032,188.064 
		3.672,187.56 4.68,186.768 5.184,185.328 4.176,185.472 3.24,185.184 3.024,183.959 4.248,183.959 4.896,182.879 4.32,182.448 
		4.248,181.583 5.256,181.44 5.688,181.944 6.768,181.512 7.416,181.512 7.92,181.152 7.776,180.792 6.912,180.648 6.192,179.856 
		6.408,178.704 6.768,177.48 6.984,176.184 7.416,175.608 8.496,174.528 9.216,174.24 9.72,174.959 9.72,176.184 10.224,176.472 
		10.728,176.472 11.232,175.68 10.944,173.664 11.016,172.728 11.808,172.512 12.312,170.352 14.184,169.704 15.408,168.408 
		15.696,166.176 16.776,164.52 18.144,163.583 18.936,160.489 19.944,160.344 21.024,159.335 22.248,159.12 24.048,158.255 
		25.488,158.112 27.36,157.463 28.872,156.24 30.384,154.656 31.824,153.288 34.848,151.127 36.432,149.472 38.664,147.6 
		41.616,145.656 41.976,143.856 42.912,142.848 44.352,141.48 45.504,140.616 46.728,140.4 48.888,138.744 50.256,137.232 
		51.264,136.008 52.2,134.352 53.568,132.84 53.784,131.256 54.216,130.68 54.792,128.736 55.008,127.584 55.512,125.928 
		55.8,123.912 56.952,121.176 58.32,120.24 59.4,119.16 60.912,118.008 62.208,117.504 63.144,115.92 64.512,113.256 
		64.944,111.456 65.52,109.08 	"/>
</g>
</svg>
